<?xml version="1.0" encoding="UTF-8" standalone="no"?>
<svg
   height="48"
   viewBox="0 -960 960 960"
   width="48"
   version="1.1"
   id="svg1"
   sodipodi:docname="rate_review.svg"
   inkscape:version="1.3.2 (1:1.3.2+202311252150+091e20ef0f)"
   xmlns:inkscape="http://www.inkscape.org/namespaces/inkscape"
   xmlns:sodipodi="http://sodipodi.sourceforge.net/DTD/sodipodi-0.dtd"
   xmlns="http://www.w3.org/2000/svg"
   xmlns:svg="http://www.w3.org/2000/svg">
  <defs
     id="defs1" />
  <sodipodi:namedview
     id="namedview1"
     pagecolor="#ffffff"
     bordercolor="#000000"
     borderopacity="0.25"
     inkscape:showpageshadow="2"
     inkscape:pageopacity="0.0"
     inkscape:pagecheckerboard="0"
     inkscape:deskcolor="#d1d1d1"
     inkscape:zoom="24.5"
     inkscape:cx="24"
     inkscape:cy="24"
     inkscape:window-width="2490"
     inkscape:window-height="1376"
     inkscape:window-x="0"
     inkscape:window-y="0"
     inkscape:window-maximized="1"
     inkscape:current-layer="svg1" />
  <path
     d="M236.609-396.609h135.435l187.778-188.695q10.089-10.377 14.851-23.167 4.762-12.789 4.762-25.485t-4.283-25.392q-4.282-12.695-14.413-23.391l-37.365-36.626q-10.896-9.939-23.416-15.005-12.52-5.065-26.178-5.065-12.52 0-24.606 4.565-12.086 4.566-22.348 14.131L236.609-532.044v135.435Zm274.347-237.347-37-37 37 37ZM305.087-465.087v-38l86.739-85.173 18.434 18 18 18.434-85.173 86.739h-38ZM410.26-570.26l18 18.434-36.434-36.434 18.434 18Zm33.784 173.651h279.347v-60H504.044l-60 60ZM65.869-65.869v-749.044q0-32.74 23.356-56.262 23.355-23.521 55.862-23.521h669.826q32.74 0 56.262 23.521 23.521 23.522 23.521 56.262v509.826q0 32.507-23.521 55.862-23.522 23.356-56.262 23.356H225.869l-160 160Zm134-239.218h615.044v-509.826H145.087v570.607l54.782-60.781Zm-54.782 0v-509.826 509.826Z"
     id="path1"
     style="fill:#4d4d4d" />
</svg>
